#!OML:ASF F:\VICON\USERDATA\INSTALL\rory3\rory3.ASF
:FULLY-SPECIFIED
:DEGREES
35
root -1.2684 18.3075 -35.9064 4.42612 -0.87706 -0.678043
lowerback 2.83245 -1.2736 -4.00285
upperback -2.99045 -1.75543 3.68905
thorax -4.46193 -0.676511 6.2227
lowerneck -4.20281 -11.1764 -20.8377
upperneck 15.1235 -15.4093 13.064
head 8.01876 -7.76675 6.1244
rclavicle -1.54617e-014 1.59028e-015
rhumerus -34.6958 -13.4045 -74.5975
rradius 28.2444
rwrist -11.3658
rhand -11.2319 17.8841
rfingers 7.12502
rthumb 14.7971 -11.5676
lclavicle -1.54617e-014 1.59028e-015
lhumerus -35.7037 16.1132 82.1624
lradius 27.4975
lwrist -8.75475
lhand 0.272491 32.4343
lfingers 7.12502
lthumb 25.8513 60.6973
rfemur -10.7337 1.5087 22.8271
rtibia 30.1593
rfoot 0 0
rtoes 0
lfemur -9.52456 -5.74987 -19.029
ltibia 27.6752
lfoot 0 0
ltoes 0
36
root -1.28101 18.3062 -35.8908 4.44619 -0.740867 -0.670195
lowerback 2.60935 -1.14399 -3.96976
upperback -2.50603 -1.5826 3.53211
thorax -3.85592 -0.624018 6.00647
lowerneck -6.19419 -11.6002 -20.0452
upperneck 15.7599 -15.7009 12.7908
head 8.54581 -7.79738 5.75913
rclavicle 1.59028e-015 -3.18055e-015
rhumerus -33.6832 -14.4464 -74.7407
rradius 28.1806
rwrist -11.2607
rhand -11.0307 17.9821
rfingers 7.12502
rthumb 14.9909 -11.4553
lclavicle 1.59028e-015 -3.18055e-015
lhumerus -34.5004 15.4652 82.6047
lradius 27.5963
lwrist -8.57501
lhand 0.17155 32.8942
lfingers 7.12502
lthumb 25.7547 61.1713
rfemur -10.6674 1.56879 22.8965
rtibia 30.1695
rfoot 0 0
rtoes 0
lfemur -9.50293 -5.77021 -18.9651
ltibia 27.6775
lfoot 0 0
ltoes 0
37
root -1.28375 18.3032 -35.8854 4.49997 -0.838551 -0.647901
lowerback 2.57175 -1.16211 -4.01405
upperback -2.57358 -1.60648 3.56413
thorax -3.90025 -0.631326 6.06756
lowerneck -6.30511 -11.4474 -19.9796
upperneck 15.9754 -15.4623 12.6326
head 8.57641 -7.6902 5.72898
rclavicle 9.37394e-015 2.06736e-014
rhumerus -33.7098 -14.0562 -74.8197
rradius 28.4963
rwrist -11.498
rhand -11.0309 18.0531
rfingers 7.12502
rthumb 14.9908 -11.3843
lclavicle 9.37394e-015 2.06736e-014
lhumerus -34.6989 15.6189 82.6027
lradius 27.874
lwrist -8.53201
lhand 0.299792 33.317
lfingers 7.12502
lthumb 25.8775 61.5762
rfemur -10.7281 1.50115 22.8577
rtibia 30.1857
rfoot 0 0
rtoes 0
lfemur -9.54705 -5.7328 -18.9973
ltibia 27.6927
lfoot 0 0
ltoes 0
38
root -1.2929 18.2996 -35.8878 4.50335 -0.495438 -0.629088
lowerback 2.87019 -1.2723 -4.04057
upperback -2.7319 -1.76295 3.5557
thorax -4.21389 -0.695201 6.09684
lowerneck -6.43625 -11.2942 -19.8335
upperneck 16.2646 -15.2507 12.5375
head 8.63909 -7.58689 5.70392
rclavicle -9.41432e-015 -7.95139e-016
rhumerus -33.8729 -13.6292 -75
rradius 28.9311
rwrist -11.6055
rhand -11.3034 17.7266
rfingers 7.12502
rthumb 14.7282 -11.7302
lclavicle -9.41432e-015 -7.95139e-016
lhumerus -34.9503 15.5219 82.5692
lradius 28.0728
lwrist -8.52509
lhand 0.419144 33.7362
lfingers 7.12502
lthumb 25.9918 61.9787
rfemur -10.7338 1.2963 22.9072
rtibia 30.2181
rfoot 0 0
rtoes 0
lfemur -9.60034 -5.79589 -18.9339
ltibia 27.6843
lfoot 0 0
ltoes 0
39
root -1.29154 18.2932 -35.8662 4.36722 -0.729721 -0.716411
lowerback 2.88393 -1.22863 -3.91509
upperback -2.85995 -1.69755 3.56291
thorax -4.36735 -0.658582 6.03304
lowerneck -6.05691 -10.9854 -19.8044
upperneck 16.4442 -14.9134 12.5337
head 8.56865 -7.44614 5.77469
rclavicle -1.08866e-015 -1.74931e-014
rhumerus -34.1974 -13.3209 -74.9558
rradius 29.1011
rwrist -11.9333
rhand -11.0587 17.7894
rfingers 7.12502
rthumb 14.9639 -11.65
lclavicle -1.08866e-015 -1.74931e-014
lhumerus -35.4733 15.3514 82.5028
lradius 28.2458
lwrist -8.34115
lhand 0.407873 34.0215
lfingers 7.12502
lthumb 25.981 62.2655
rfemur -10.5377 1.36892 22.9771
rtibia 30.2366
rfoot 0 0
rtoes 0
lfemur -9.325 -5.80405 -18.9081
ltibia 27.6607
lfoot 0 0
ltoes 0
40
root -1.29824 18.2928 -35.8559 4.34718 -0.528909 -0.596901
lowerback 2.89724 -1.24175 -4.02318
upperback -2.81978 -1.72323 3.50728
thorax -4.32832 -0.670987 6.03674
lowerneck -6.50903 -10.9384 -19.5936
upperneck 16.8433 -14.8065 12.4398
head 8.74054 -7.37504 5.70734
rclavicle -1.59445e-014 -7.15625e-015
rhumerus -34.0294 -13.1382 -75.1087
rradius 29.3391
rwrist -12.3787
rhand -11.4372 17.5091
rfingers 7.12502
rthumb 14.5993 -11.9571
lclavicle -1.59445e-014 -7.15625e-015
lhumerus -35.3124 15.2038 82.5921
lradius 28.2541
lwrist -8.23107
lhand 0.363344 33.9991
lfingers 7.12502
lthumb 25.9383 62.2494
rfemur -10.4651 1.29618 22.8979
rtibia 30.2655
rfoot 0 0
rtoes 0
lfemur -9.30621 -5.84512 -18.9971
ltibia 27.6602
lfoot 0 0
ltoes 0
41
root -1.3116 18.2935 -35.8424 4.31852 0.172931 -0.493832
lowerback 2.98501 -1.4385 -4.16152
upperback -2.88048 -1.99701 3.48717
thorax -4.40196 -0.799795 6.11546
lowerneck -6.89782 -10.8425 -19.4289
upperneck 17.3793 -14.6531 12.3482
head 8.94484 -7.28907 5.66024
rclavicle -7.08093e-015 5.56597e-015
rhumerus -34.0921 -12.9475 -75.1768
rradius 29.623
rwrist -12.783
rhand -11.5549 17.4239
rfingers 7.12502
rthumb 14.4859 -12.0505
lclavicle -7.08093e-015 5.56597e-015
lhumerus -35.2643 15.204 82.5688
lradius 28.1468
lwrist -8.28738
lhand 0.397833 33.7621
lfingers 7.12502
lthumb 25.9714 62.0076
rfemur -10.2878 1.14893 22.9467
rtibia 30.2332
rfoot 0 0
rtoes 0
lfemur -9.29732 -6.09556 -18.9645
ltibia 27.6403
lfoot 0 0
ltoes 0
42
root -1.29995 18.2944 -35.855 4.47928 -1.17051 -0.607558
lowerback 3.08239 -1.00806 -3.97071
upperback -3.01206 -1.41323 3.46145
thorax -4.67893 -0.503206 5.9508
lowerneck -7.25287 -10.6371 -19.3313
upperneck 17.9029 -14.3582 12.3327
head 9.12734 -7.13712 5.67634
rclavicle -5.50385e-015 2.70347e-014
rhumerus -34.2029 -12.8197 -75.1472
rradius 29.7991
rwrist -12.8588
rhand -11.3421 17.4973
rfingers 7.12502
rthumb 14.6909 -11.9622
lclavicle -5.50385e-015 2.70347e-014
lhumerus -35.3106 15.3621 82.4706
lradius 28.0241
lwrist -8.36969
lhand 0.428224 33.5851
lfingers 7.12502
lthumb 26.0005 61.8263
rfemur -10.673 1.52118 22.8249
rtibia 30.2228
rfoot 0 0
rtoes 0
lfemur -9.36419 -5.81345 -19.0778
ltibia 27.6642
lfoot 0 0
ltoes 0
43
root -1.31224 18.2942 -35.8343 4.39397 -0.848048 -0.620968
lowerback 2.92297 -1.21428 -4.09067
upperback -3.04072 -1.6865 3.58847
thorax -4.57624 -0.635941 6.16686
lowerneck -7.25958 -10.2819 -19.5103
upperneck 18.2866 -13.8864 12.4284
head 9.19879 -6.92589 5.81976
rclavicle 1.92635e-014 -2.06736e-014
rhumerus -34.2094 -12.3715 -75.1435
rradius 29.8876
rwrist -12.6137
rhand -11.6059 17.4577
rfingers 7.12502
rthumb 14.4367 -12.0201
lclavicle 1.92635e-014 -2.06736e-014
lhumerus -35.6085 15.8308 82.3518
lradius 28.0247
lwrist -8.44625
lhand 0.384697 33.2081
lfingers 7.12502
lthumb 25.9588 61.4553
rfemur -10.4306 1.4836 22.9426
rtibia 30.1783
rfoot 0 0
rtoes 0
lfemur -9.23344 -5.92154 -18.9889
ltibia 27.7055
lfoot 0 0
ltoes 0
44
root -1.31291 18.2956 -35.8354 4.44577 -1.25847 -0.700316
lowerback 2.63277 -0.957891 -3.86992
upperback -2.47972 -1.33144 3.47564
thorax -3.87795 -0.501988 5.87645
lowerneck -9.19265 -10.5045 -19.0335
upperneck 19.018 -13.9566 12.3453
head 9.77887 -6.85822 5.62741
rclavicle 1.23681e-014 -3.26007e-014
rhumerus -32.9781 -13.3566 -75.2489
rradius 29.6951
rwrist -12.4166
rhand -11.327 17.9411
rfingers 7.12502
rthumb 14.7055 -11.5173
lclavicle 1.23681e-014 -3.26007e-014
lhumerus -34.2818 15.877 82.5637
lradius 27.7141
lwrist -8.65841
lhand 0.361623 32.537
lfingers 7.12502
lthumb 25.9367 60.7875
rfemur -10.5275 1.64843 22.9713
rtibia 30.1627
rfoot 0 0
rtoes 0
lfemur -9.28017 -5.77702 -18.9683
ltibia 27.7582
lfoot 0 0
ltoes 0
45
root -1.32515 18.2956 -35.8356 4.4902 -0.971339 -0.794721
lowerback 3.37307 -1.05522 -3.87673
upperback -3.10302 -1.47509 3.53833
thorax -4.9324 -0.525794 5.99463
lowerneck -8.92657 -10.1439 -18.8541
upperneck 19.7871 -13.5319 12.0249
head 9.8857 -6.69679 5.5785
rclavicle 1.30701e-014 -2.46493e-014
rhumerus -33.8389 -13.0479 -75.062
rradius 29.8706
rwrist -12.5897
rhand -11.281 17.9362
rfingers 7.12502
rthumb 14.7498 -11.519
lclavicle 1.30701e-014 -2.46493e-014
lhumerus -35.304 15.786 82.3082
lradius 27.6967
lwrist -8.49344
lhand 0.133222 32.2801
lfingers 7.12502
lthumb 25.718 60.5625
rfemur -10.5307 1.74059 23.1813
rtibia 30.116
rfoot 0 0
rtoes 0
lfemur -9.39612 -5.77188 -18.7481
ltibia 27.7657
lfoot 0 0
ltoes 0
